# AST/ASF file generated using VICON BodyLanguage
# -----------------------------------------------
:version 1.10
:name VICON
:units
  mass 1.0
  length 0.45
  angle deg
:documentation
   .ast/.asf automatically generated from VICON data using
   VICON BodyBuilder and BodyLanguage model FoxedUp or BRILLIANT.MOD
:root
   order TX TY TZ RX RY RZ
   axis XYZ
   position 0 0 0  
   orientation 0 0 0 
:bonedata
  begin
     id 1 
     name lhipjoint
     direction 0.522423 -0.726805 0.445902 
     length 2.25074 
     axis 0 0 0  XYZ
  end
  begin
     id 2 
     name lfemur
     direction 0.34202 -0.939693 0  
     length 6.54609  
     axis 0 0 20  XYZ
    dof rx ry rz
    limits (-160.0 20.0)
           (-70.0 70.0)
           (-60.0 70.0)
  end
  begin
     id 3 
     name ltibia
     direction 0.34202 -0.939693 0   
     length 7.7528   
     axis 0 0 20   XYZ
    dof rx
    limits (-10.0 170.0)
  end
  begin
     id 4 
     name lfoot
     direction 0.143696 -0.394801 0.90746   
     length 1.73269   
     axis -90 7.62852e-016 20   XYZ
    dof rx rz
    limits (-45.0 90.0)
           (-70.0 20.0)
  end
  begin
     id 5 
     name ltoes
     direction 1.53633e-011 -4.21912e-011 1   
     length 0.858383   
     axis -90 7.62852e-016 20   XYZ
    dof rx
    limits (-90.0 20.0)
  end
  begin
     id 6 
     name rhipjoint
     direction -0.515943 -0.73016 0.447961   
     length 2.2404  
     axis 0 0 0  XYZ 
  end
  begin
     id 7 
     name rfemur
     direction -0.34202 -0.939693 0   
     length 6.84377   
     axis 0 0 -20   XYZ
    dof rx ry rz
    limits (-160.0 20.0)
           (-70.0 70.0)
           (-70.0 60.0)
  end
  begin
     id 8 
     name rtibia
     direction -0.34202 -0.939693 0   
     length 7.57596   
     axis 0 0 -20   XYZ
    dof rx
    limits (-10.0 170.0)
 end
 begin
     id 9 
     name rfoot
     direction -0.0999372 -0.274575 0.956358   
     length 1.78783  
     axis -90 -7.62852e-016 -20   XYZ
    dof rx rz
    limits (-45.0 90.0)
           (-20.0 70.0)
  end
  begin
     id 10 
     name rtoes
     direction -1.53535e-011 -4.21895e-011 1   
     length 0.898614   
     axis -90 -7.62852e-016 -20   XYZ
    dof rx
    limits (-90.0 20.0)
  end
  begin
     id 11 
     name lowerback
     direction -0.011775 0.996164 -0.0867116   
     length 1.91499   
     axis 0 0 0   XYZ
    dof rx ry rz
    limits (-20.0 45.0)
           (-30.0 30.0)
           (-30.0 30.0)
  end
  begin
     id 12 
     name upperback
     direction -0.00189771 0.999673 -0.0254833   
     length 1.92213   
     axis 0 0 0   XYZ
    dof rx ry rz
    limits (-20.0 45.0)
           (-30.0 30.0)
           (-30.0 30.0)
  end
  begin
     id 13 
     name thorax
     direction 0.00335995 0.999878 0.0152401   
     length 1.93138   
     axis 0 0 0   XYZ
    dof rx ry rz
    limits (-20.0 45.0)
           (-30.0 30.0)
           (-30.0 30.0)
  end
  begin
     id 14 
     name lowerneck
     direction 0.00233191 0.998509 0.0545404   
     length 1.59408   
     axis 0 0 0   XYZ
    dof rx ry rz
    limits (-20.0 45.0)
           (-30.0 30.0)
           (-30.0 30.0)
  end
  begin
     id 15 
     name upperneck
     direction 0.07881 0.9956 -0.0506934   
     length 1.59344   
     axis 0 0 0   XYZ
    dof rx ry rz
    limits (-20.0 45.0)
           (-30.0 30.0)
           (-30.0 30.0)
  end
  begin
     id 16
     name head
     direction 0.0261681 0.999378 -0.0236299  
     length 1.60935  
     axis 0 0 0   XYZ
    dof rx ry rz
    limits (-20.0 45.0)
           (-30.0 30.0)
           (-30.0 30.0)
  end
  begin
     id 17 
     name lclavicle
     direction 0.96643 0.252035 0.0499195  
     length 3.82153  
     axis 0 0 0   XYZ
    dof ry rz
    limits (-20.0 10.0)
           (0.0 20.0)
  end
  begin
     id 18 
     name lhumerus
     direction 1 -4.48967e-011 -2.01614e-018   
     length 4.87796   
     axis 180 -30 -90   XYZ
    dof rx ry rz
    limits (-60.0 90.0)
           (-90.0 90.0)
           (-90.0 90.0)
  end
  begin
     id 19
     name lradius
     direction 1 -4.48958e-011 3.1409e-027   
     length 3.23169   
     axis 180 -30 -90   XYZ
    dof rx
    limits (-10.0 170.0)
  end
  begin
     id 20
     name lwrist
     direction 1 -4.48924e-011 1.0365e-027   
     length 1.61584   
     axis -2.56395e-016 90 90   XYZ
    dof ry
    limits (-180.0 0.0)
 end
  begin
     id 21 
     name lhand
     direction 1 -4.49055e-011 2.09488e-027   
     length 0.731324   
     axis -1.32723e-015 90 90   XYZ
    dof rx rz
    limits (-90.0 90.0)
           (-45.0 45.0)
  end
  begin
     id 22 
     name lfingers
     direction 1 -4.48935e-011 4.14981e-027   
     length 0.589612   
     axis -2.6545e-015 90 90   XYZ
    dof rx
    limits (0.0 90.0)
  end
  begin
     id 23
     name lthumb
     direction 0.707107 -6.35097e-011 0.707107   
     length 0.846569   
     axis -90 45 5.05613e-014   XYZ
    dof rx rz
    limits (-45.0 45.0)
           (-45.0 45.0)
  end
  begin
     id 24 
     name rclavicle
     direction -0.979337 0.201016 0.0221522   
     length 3.73827  
     axis 0 0 0   XYZ 
    dof ry rz
    limits (-10.0 20.0)
           (-20.0 0.0)
  end
  begin
     id 25 
     name rhumerus
     direction -1 -4.48971e-011 1.65907e-027  
     length 4.9143   
     axis 180 30 90   XYZ
    dof rx ry rz
    limits (-90.0 60.0)
           (-90.0 90.0)
           (-90.0 90.0)
  end
  begin
     id 26 
     name rradius
     direction -1 -4.4894e-011 2.17871e-028   
     length 3.29093   
     axis 180 30 90   XYZ
    dof rx
    limits (-10.0 170.0)
  end
  begin
     id 27 
     name rwrist
     direction -1 -4.48971e-011 1.04038e-027   
     length 1.64546   
     axis -2.56395e-016 -90 -90   XYZ
    dof ry
    limits (-180.0 0.0)
  end
  begin
     id 28
     name rhand
     direction -1 -4.49017e-011 2.08843e-027   
     length 0.54512   
     axis -1.32723e-015 -90 -90   XYZ
    dof rx rz
    limits (-90.0 90.0)
           (-45.0 45.0)
  end
  begin
     id 29
     name rfingers
     direction -1 -4.48918e-011 4.1439e-027   
     length 0.43949   
     axis -2.6545e-015 -90 -90   XYZ
    dof rx
    limits (0.0 90.0)
  end
  begin
     id 30
     name rthumb
     direction -0.707107 -6.35065e-011 0.707107   
     length 0.631022   
     axis -90 -45 -5.05613e-014   XYZ
    dof rx rz
    limits (-45.0 45.0)
           (-45.0 45.0)
  end
:hierarchy
  begin
    root lhipjoint rhipjoint lowerback
    lhipjoint lfemur
    lfemur ltibia
    ltibia lfoot
    lfoot ltoes
    rhipjoint rfemur
    rfemur rtibia
    rtibia rfoot
    rfoot rtoes
    lowerback upperback
    upperback thorax
    thorax lowerneck lclavicle rclavicle
    lowerneck upperneck
    upperneck head
    lclavicle lhumerus
    lhumerus lradius
    lradius lwrist
    lwrist lhand lthumb
    lhand lfingers
    rclavicle rhumerus
    rhumerus rradius
    rradius rwrist
    rwrist rhand rthumb
    rhand rfingers
  end

#!OML:ASF H:\BreakDance\Project 1\Capture day 1\Session 1\Male.ASF
:FULLY-SPECIFIED
:DEGREES
543
root -10.0463 12.7016 -2.10535 90.5404 29.6668 -0.00039311
lowerback 16.7321 2.10475 2.59469
upperback 12.1538 3.08001 -1.55085
thorax 3.89293 1.76866 -3.49238
lowerneck -10.3292 -7.69572 6.87612
upperneck -27.5715 -9.17105 12.6242
head -6.60763 -6.35694 3.25146
rclavicle 3.18055e-015 5.96354e-014
rhumerus 62.671 -15.0662 -48.4138
rradius 30.4249
rwrist -32.4217
rhand -13.1005 -50.5455
rfingers 7.12502
rthumb 12.9963 -80.1207
lclavicle 3.18055e-015 5.96354e-014
lhumerus 90.5722 15.6882 88.4044
lradius 26.5721
lwrist -26.3925
lhand -22.2523 -42.3988
lfingers 7.12502
lthumb 4.16518 -12.4598
rfemur -89.6659 -5.82487 17.0249
rtibia 91.911
rfoot -31.952 -7.18054
rtoes 41.1715
lfemur -93.5491 -6.49034 -29.3708
ltibia 72.7748
lfoot -30.0751 -12.6404
ltoes -34.629
544
root -10.222 12.6594 -2.14299 89.9399 29.6088 0.121472
lowerback 16.9209 2.15454 2.58565
upperback 12.0241 3.14415 -1.57661
thorax 3.65838 1.79532 -3.53494
lowerneck -10.3101 -7.69377 6.99201
upperneck -27.5199 -9.15274 12.6394
head -6.60159 -6.3529 3.23637
rclavicle -2.22639e-014 -1.98785e-014
rhumerus 62.5822 -14.5365 -48.6809
rradius 30.6172
rwrist -32.1546
rhand -14.6902 -52.6226
rfingers 7.12502
rthumb 11.4635 -82.2892
lclavicle -2.22639e-014 -1.98785e-014
lhumerus 89.8047 15.1034 89.3425
lradius 27.211
lwrist -28.389
lhand -25.3902 -42.9816
lfingers 7.12502
lthumb 1.13474 -13.0049
rfemur -88.8347 -5.63048 16.5135
rtibia 91.7727
rfoot -32.2083 -7.68558
rtoes 41.1742
lfemur -93.4132 -6.57069 -30.1129
ltibia 72.8624
lfoot -30.4498 -13.4149
ltoes -28.3463
545
root -10.3939 12.6199 -2.18628 89.2105 29.4967 0.209107
lowerback 17.1696 2.22575 2.62299
upperback 11.8928 3.24035 -1.6385
thorax 3.40056 1.84118 -3.64968
lowerneck -10.2197 -7.73464 7.08992
upperneck -27.4172 -9.18596 12.6877
head -6.58477 -6.3746 3.23601
rclavicle 2.06736e-014 -1.19271e-013
rhumerus 62.4842 -14.0851 -49.131
rradius 30.746
rwrist -31.7707
rhand -15.9648 -54.34
rfingers 7.12502
rthumb 10.2341 -84.0711
lclavicle 2.06736e-014 -1.19271e-013
lhumerus 88.3708 14.6225 88.8366
lradius 28.0374
lwrist -29.0388
lhand -28.8144 -43.0995
lfingers 7.12502
lthumb -2.17245 -13.1308
rfemur -88.0671 -5.53503 16.0381
rtibia 91.7963
rfoot -32.3543 -8.00272
rtoes 41.404
lfemur -93.144 -6.67631 -30.7188
ltibia 73.1408
lfoot -31.2471 -12.9208
ltoes -23.6622
546
root -10.5589 12.5873 -2.23296 88.3495 29.3499 0.25209
lowerback 17.4613 2.31938 2.71758
upperback 11.7606 3.37126 -1.73139
thorax 3.1303 1.90773 -3.83751
lowerneck -10.0579 -7.80774 7.23872
upperneck -27.2461 -9.27406 12.7011
head -6.56037 -6.42441 3.21749
rclavicle -4.77083e-015 -5.24792e-014
rhumerus 62.3833 -13.691 -49.7029
rradius 30.7744
rwrist -31.246
rhand -16.9287 -55.5969
rfingers 7.12502
rthumb 9.30412 -85.3716
lclavicle -4.77083e-015 -5.24792e-014
lhumerus 86.2227 14.1745 86.6603
lradius 29.097
lwrist -27.8406
lhand -32.2691 -42.5417
lfingers 7.12502
lthumb -5.50857 -12.6333
rfemur -87.3176 -5.51575 15.6027
rtibia 91.9186
rfoot -32.4158 -8.26577
rtoes 41.7361
lfemur -92.7948 -6.80254 -31.046
ltibia 73.6794
lfoot -31.8693 -12.4348
ltoes -19.3793
547
root -10.7151 12.5626 -2.2823 87.3645 29.1936 0.268696
lowerback 17.803 2.42883 2.89148
upperback 11.6177 3.5322 -1.83595
thorax 2.83419 1.99225 -4.09125
lowerneck -9.81322 -7.91946 7.38368
upperneck -27.0009 -9.4137 12.7193
head -6.52228 -6.49772 3.20206
rclavicle 2.54444e-014 -7.95139e-015
rhumerus 62.2339 -13.3106 -50.276
rradius 30.7166
rwrist -30.5796
rhand -17.3135 -56.0797
rfingers 7.12502
rthumb 8.93285 -85.8706
lclavicle 2.54444e-014 -7.95139e-015
lhumerus 83.4031 13.5504 82.9468
lradius 30.4693
lwrist -24.6729
lhand -35.4373 -41.4296
lfingers 7.12502
lthumb -8.56684 -11.6234
rfemur -86.5471 -5.56755 15.2027
rtibia 92.0996
rfoot -32.435 -8.47023
rtoes 42.1281
lfemur -92.399 -6.96856 -31.0218
ltibia 74.4825
lfoot -32.2579 -12.5136
ltoes -15.1532
548
root -10.8642 12.5414 -2.3356 86.2713 29.0326 0.264736
lowerback 18.1982 2.54677 3.13238
upperback 11.4503 3.71382 -1.94162
thorax 2.494 2.08786 -4.39308
lowerneck -9.54415 -8.07272 7.39968
upperneck -26.6003 -9.5955 12.842
head -6.41886 -6.57788 3.23192
rclavicle 6.67916e-014 -9.54166e-015
rhumerus 62.0037 -12.8902 -50.772
rradius 30.581
rwrist -29.7094
rhand -17.3575 -56.0951
rfingers 7.12502
rthumb 8.8904 -85.8879
lclavicle 6.67916e-014 -9.54166e-015
lhumerus 80.1028 12.5232 78.1397
lradius 32.18
lwrist -20.0525
lhand -38.4673 -39.85
lfingers 7.12502
lthumb -11.49 -10.1849
rfemur -85.776 -5.6708 14.8237
rtibia 92.3529
rfoot -32.4235 -8.59266
rtoes 42.5866
lfemur -91.9851 -7.18166 -30.7017
ltibia 75.4309
lfoot -31.7164 -14.8463
ltoes -7.3413
549
root -11.0087 12.5196 -2.39379 85.0931 28.8421 0.245937
lowerback 18.6524 2.67463 3.39254
upperback 11.2482 3.91288 -2.04688
thorax 2.09262 2.18912 -4.7158
lowerneck -9.31168 -8.27053 7.23674
upperneck -25.9885 -9.82606 13.1188
head -6.21489 -6.66213 3.32305
rclavicle 2.8625e-014 1.11319e-014
rhumerus 61.6865 -12.406 -51.1621
rradius 30.3472
rwrist -28.5564
rhand -17.2611 -56.0671
rfingers 7.12502
rthumb 8.98342 -85.8559
lclavicle 2.8625e-014 1.11319e-014
lhumerus 76.6373 10.9217 72.9441
lradius 34.1903
lwrist -14.8592
lhand -41.1871 -38.2584
lfingers 7.12502
lthumb -14.1119 -8.75762
rfemur -85.0475 -5.80951 14.4339
rtibia 92.7029
rfoot -32.403 -8.83998
rtoes 42.6881
lfemur -91.5448 -7.43967 -30.2243
ltibia 76.417
lfoot -30.2499 -18.6437
ltoes 2.74626
550
root -11.1523 12.4914 -2.45797 83.8665 28.5941 0.223359
lowerback 19.1425 2.80529 3.6294
upperback 11.0246 4.11501 -2.15325
thorax 1.65211 2.2874 -5.034
lowerneck -9.15553 -8.50947 6.90249
upperneck -25.2014 -10.107 13.5531
head -5.91662 -6.75362 3.47384
rclavicle 5.24792e-014 -4.69132e-014
rhumerus 61.3682 -11.8597 -51.4992
rradius 29.9634
rwrist -27.0721
rhand -17.1254 -56.2762
rfingers 7.12502
rthumb 9.11432 -86.0593
lclavicle 5.24792e-014 -4.69132e-014
lhumerus 73.3529 8.75751 67.9678
lradius 36.3605
lwrist -9.98128
lhand -43.0841 -37.5628
lfingers 7.12502
lthumb -15.9394 -8.19865
rfemur -84.4211 -5.97019 14.0014
rtibia 93.1869
rfoot -32.3757 -9.09049
rtoes 42.5581
lfemur -91.0552 -7.71879 -29.817
ltibia 77.306
lfoot -27.9775 -22.771
ltoes 12.0356
551
root -11.2946 12.4568 -2.52684 82.6396 28.2579 0.205993
lowerback 19.6306 2.93104 3.80706
upperback 10.7945 4.30419 -2.26955
thorax 1.20319 2.37477 -5.33161
lowerneck -9.10475 -8.7592 6.44744
upperneck -24.3157 -10.4099 14.0711
head -5.55414 -6.84096 3.65455
rclavicle 2.70347e-014 8.26944e-014
rhumerus 61.07 -11.2585 -51.807
rradius 29.5064
rwrist -25.3459
rhand -16.9721 -56.8221
rfingers 7.12502
rthumb 9.26226 -86.5986
lclavicle 2.70347e-014 8.26944e-014
lhumerus 70.4608 6.15923 63.523
lradius 38.5513
lwrist -5.97535
lhand -44.3914 -37.5248
lfingers 7.12502
lthumb -17.198 -8.26585
rfemur -83.9369 -6.15224 13.4982
rtibia 93.7911
rfoot -32.3429 -9.30563
rtoes 42.2986
lfemur -90.5133 -8.00779 -29.5875
ltibia 78.083
lfoot -25.4813 -26.1675
ltoes 17.7223
